<svg id="sprites" xmlns="http://www.w3.org/2000/svg">
  <symbol id="seta" viewBox="0 0 16 16">
    <path d="M11.5,8.1L11.5,8.1l-0.7,0.7l-0.7,0.7l0,0l-4,3.8l-1.4-1.4l4-3.8l-4.1-4l1.4-1.4l4.1,4l0,0l0.7,0.7L11.5,8.1L11.5,8.1z"/>
  </symbol>

  <symbol id="sucesso" viewBox="0 0 17.998 18.008">
    <path d="M8.999,0C4.029,0,0,4.031,0,9.004c0,4.973,4.029,9.004,8.999,9.004c4.97,0,8.999-4.031,8.999-9.004 C17.998,4.031,13.969,0,8.999,0z M14.498,6.417l-6.17,6.044c-0.031,0.051-0.069,0.104-0.12,0.156l-0.289,0.289 c-0.16,0.16-0.348,0.23-0.42,0.159L4.561,9.989C4.489,9.917,4.56,9.729,4.72,9.568l0.289-0.289c0.16-0.16,0.348-0.231,0.42-0.159 l2.203,2.306l5.999-5.877c0.16-0.16,0.419-0.16,0.579,0l0.29,0.29C14.658,5.999,14.658,6.257,14.498,6.417z"/>
  </symbol>

  <symbol id="erro" viewBox="0 0 17.998 18.008">
    <path d="M8.999,0C4.029,0,0,4.031,0,9.004s4.029,9.004,8.999,9.004c4.97,0,8.999-4.031,8.999-9.004 S13.969,0,8.999,0z M13.237,11.826l-1.413,1.414l-2.829-2.829L6.167,13.24l-1.414-1.414l2.829-2.829L4.753,6.169l1.414-1.415 l2.829,2.829l2.829-2.829l1.414,1.415L10.41,8.997L13.237,11.826z"/>
  </symbol>

  <symbol id="editar" viewBox="0 0 11.896 11.521">
    <path d="M9.93,0L5.994,3.937L1.836,8.095l1.965,1.965l3.941-3.926l0.01-0.016l0.212-0.211l0.01-0.004l3.923-3.938 L9.93,0z M0.019,11.506l2.079-0.375L0.394,9.426L0.019,11.506z"/>
  </symbol>
</svg>